<svg aria-hidden="true" style="position: absolute; width: 0; height: 0; overflow: hidden;" version="1.1" xmlns="http://www.w3.org/2000/svg" xmlns:xlink="http://www.w3.org/1999/xlink">
    <defs>
        <symbol id="icon-menu_close" viewBox="0 0 32 32">
            <path  stroke-linejoin="miter" stroke-linecap="butt" stroke-miterlimit="4" stroke-width="2" d="M2.519 2l26.963 28"></path>
            <path  stroke-linejoin="miter" stroke-linecap="butt" stroke-miterlimit="4" stroke-width="2" d="M2 29.481l28-26.963"></path>
        </symbol>
        <symbol id="icon-menu_open" viewBox="0 0 48 32">
            <path d="M0 5.333v-5.333h48v5.333h-48zM0 18.667h48v-5.333h-48v5.333zM0 32h48v-5.333h-48v5.333z"></path>
        </symbol>

        <symbol id="icon-contacts-btn-1" viewBox="0 0 19 32">
            <path fill="none" stroke="#fff" style="stroke: var(--color1, #fff)" stroke-linejoin="round" stroke-linecap="round" stroke-miterlimit="4" stroke-width="6.4" d="M3.2 3.2l11.553 12.8-11.553 12.8"></path>
        </symbol>
        <symbol id="icon-contacts-btn-2" viewBox="0 0 22 32">
            <path fill="none" stroke="#d41443" style="stroke: var(--color2, #d41443)" stroke-linejoin="round" stroke-linecap="round" stroke-miterlimit="4" stroke-width="6.4" d="M4.545 3.2l13.7 12.8-13.7 12.8"></path>
        </symbol>

        <symbol id="icon-facebook" viewBox="0 0 16 32">
            <path fill="#fff" style="fill: var(--color1, #fff)" d="M14.266 15.97h-4.176v15.39h-6.328v-15.392h-3.008v-5.408h3.008v-3.498c0-2.504 1.184-6.422 6.384-6.422l4.688 0.019v5.25h-3.402c-0.557 0-1.342 0.282-1.342 1.475v3.184h4.73l-0.554 5.4z"></path>
        </symbol>
        <symbol id="icon-github" viewBox="0 0 32 32">
            <path fill="#fff" style="fill: var(--color1, #fff)" d="M16 0.941c-8.272 0-15.059 6.789-15.059 15.059 0 7.059 4.954 13.47 11.53 15.059v-4.982c-0.651 0.144-1.251 0.147-1.915-0.048-0.89-0.264-1.613-0.856-2.149-1.76-0.342-0.576-0.949-1.203-1.581-1.157l-0.155-1.758c1.368-0.117 2.55 0.834 3.253 2.014 0.312 0.525 0.672 0.832 1.133 0.968 0.445 0.131 0.923 0.069 1.482-0.128 0.139-1.117 0.651-1.536 1.037-2.123-3.922-0.586-5.485-2.667-6.106-4.309-0.822-2.181-0.381-4.906 1.072-6.627 0.029-0.032 0.080-0.122 0.061-0.182-0.667-2.014 0.144-3.68 0.176-3.856 0.768 0.227 0.893-0.229 3.341 1.258l0.422 0.254c0.176 0.106 0.122 0.045 0.299 0.032 0.943-0.266 2.029-0.428 3.15-0.445l0.010-0c1.147 0.018 2.247 0.183 3.294 0.478l-0.090-0.022 0.138 0.014c-0.013-0.002 0.037-0.010 0.12-0.059 3.056-1.851 2.947-1.246 3.766-1.512 0.030 0.176 0.832 1.869 0.171 3.856-0.088 0.275 2.651 2.784 1.133 6.811-0.621 1.643-2.184 3.723-6.106 4.309 0.502 0.768 1.107 1.174 1.104 2.755v6.219c6.576-1.589 11.53-8 11.53-15.059 0-8.272-6.787-15.059-15.059-15.059z"></path>
        </symbol>
        <symbol id="icon-right-arrow-products" viewBox="0 0 32 32">
            <path d="M28.66 17.11c0.031-0.043 0.061-0.092 0.087-0.143l0.003-0.007 0.1-0.2 0.060-0.2c0.021-0.049 0.038-0.106 0.049-0.165l0.001-0.005c0.024-0.117 0.038-0.252 0.038-0.39s-0.014-0.273-0.041-0.403l0.002 0.013c-0.012-0.064-0.029-0.121-0.052-0.176l0.002 0.006-0.060-0.2-0.1-0.2c-0.029-0.058-0.059-0.107-0.092-0.154l0.002 0.004c-0.075-0.117-0.157-0.218-0.25-0.31l-10-10c-0.347-0.299-0.803-0.481-1.301-0.481-1.105 0-2 0.895-2 2 0 0.498 0.182 0.953 0.483 1.304l-0.002-0.003 6.58 6.6h-17.17c-1.105 0-2 0.895-2 2s0.895 2 2 2h17.17l-6.58 6.59c-0.429 0.369-0.699 0.913-0.699 1.519 0 1.105 0.895 2 2 2 0.607 0 1.15-0.27 1.517-0.696l0.002-0.003 10-10c0.092-0.089 0.175-0.187 0.246-0.294l0.004-0.006z"></path>
        </symbol>
        <symbol id="icon-telegram" viewBox="0 0 40 32">
            <path fill="#fff" style="fill: var(--color1, #fff)" d="M16.206 20.75l-0.636 8.34c0.908 0 1.302-0.366 1.774-0.802l4.26-3.8 8.83 6.034c1.62 0.84 2.76 0.398 3.196-1.39l5.796-25.346h0.002c0.514-2.236-0.866-3.108-2.444-2.56l-34.064 12.172c-2.324 0.84-2.29 2.052-0.396 2.6l8.71 2.528 20.23-11.814c0.952-0.588 1.816-0.264 1.104 0.326l-16.362 13.712z"></path>
        </symbol>
        <symbol id="icon-btn-icon" viewBox="0 0 26 32">
            <path fill="none" stroke="#d41443" stroke-width="6.4" stroke-linecap="round" stroke-linejoin="round" style="stroke:var(--color1, #d41443)" d="M3.542 3.2 20.368 16 3.542 28.8"/>
        </symbol>
        <symbol id="icon-burger-menu-btn" viewBox="0 0 46 32">
            <path fill="none" stroke="#d41443" stroke-width="2.286" style="stroke:var(--color1, #d41443)" d="M0 2.286h45.714M0 16h45.714M0 29.714h45.714"/>
        </symbol>
        <symbol id="icon-close" viewBox="0 0 32 32">
            <path fill="none" stroke="#fff" stroke-width="2" style="stroke:var(--color2, #fff)" d="m2.52 2 26.96 28M2 29.48 30 2.52"/>
        </symbol>
        
    </defs>
</svg>

