<svg aria-hidden="true" style="position:absolute;width:0;height:0;overflow:hidden" xmlns="http://www.w3.org/2000/svg"><defs><symbol id="icon-menu_close" viewBox="0 0 32 32"><path stroke-width="2" d="m2.519 2 26.963 28M2 29.481 30 2.518"/></symbol><symbol id="icon-menu_open" viewBox="0 0 48 32"><path d="M0 5.333V0h48v5.333H0zm0 13.334h48v-5.333H0v5.333zM0 32h48v-5.333H0V32z"/></symbol><symbol id="icon-facebook" viewBox="0 0 16 32"><path fill="#fff" style="fill:var(color1, #fff)" d="M14.266 15.97H10.09v15.39H3.762V15.968H.754V10.56h3.008V7.062C3.762 4.558 4.946.64 10.146.64l4.688.019v5.25h-3.402c-.557 0-1.342.282-1.342 1.475v3.184h4.73l-.554 5.4z"/></symbol><symbol id="icon-github" viewBox="0 0 32 32"><path fill="#fff" style="fill:var(color1, #fff)" d="M16 .941C7.728.941.941 7.73.941 16c0 7.059 4.954 13.47 11.53 15.059v-4.982c-.651.144-1.251.147-1.915-.048-.89-.264-1.613-.856-2.149-1.76-.342-.576-.949-1.203-1.581-1.157l-.155-1.758c1.368-.117 2.55.834 3.253 2.014.312.525.672.832 1.133.968.445.131.923.069 1.482-.128.139-1.117.651-1.536 1.037-2.123-3.922-.586-5.485-2.667-6.106-4.309-.822-2.181-.381-4.906 1.072-6.627.029-.032.08-.122.061-.182-.667-2.014.144-3.68.176-3.856.768.227.893-.229 3.341 1.258l.422.254c.176.106.122.045.299.032a12.465 12.465 0 0 1 3.15-.445h.01c1.147.018 2.247.183 3.294.478l-.09-.022.138.014c-.013-.002.037-.01.12-.059 3.056-1.851 2.947-1.246 3.766-1.512.03.176.832 1.869.171 3.856-.088.275 2.651 2.784 1.133 6.811-.621 1.643-2.184 3.723-6.106 4.309.502.768 1.107 1.174 1.104 2.755v6.219c6.576-1.589 11.53-8 11.53-15.059 0-8.272-6.787-15.059-15.059-15.059z"/></symbol><symbol id="icon-right-arrow-products" viewBox="0 0 32 32"><path d="M28.66 17.11a1.11 1.11 0 0 0 .087-.143l.003-.007.1-.2.06-.2a.796.796 0 0 0 .049-.165l.001-.005a1.977 1.977 0 0 0-.003-.793l.002.013a.86.86 0 0 0-.052-.176l.002.006-.06-.2-.1-.2a1.183 1.183 0 0 0-.092-.154l.002.004a1.785 1.785 0 0 0-.25-.31l-10-10a2 2 0 0 0-2.818 2.823l-.002-.003 6.58 6.6H4.999a2 2 0 1 0 0 4h17.17l-6.58 6.59a2 2 0 1 0 2.818 2.823l.002-.003 10-10c.092-.089.175-.187.246-.294l.004-.006z"/></symbol><symbol id="icon-telegram" viewBox="0 0 40 32"><path fill="#fff" style="fill:var(color1, #fff)" d="m16.206 20.75-.636 8.34c.908 0 1.302-.366 1.774-.802l4.26-3.8 8.83 6.034c1.62.84 2.76.398 3.196-1.39l5.796-25.346h.002c.514-2.236-.866-3.108-2.444-2.56L2.92 13.398c-2.324.84-2.29 2.052-.396 2.6l8.71 2.528 20.23-11.814c.952-.588 1.816-.264 1.104.326L16.206 20.75z"/></symbol><symbol id="icon-btn-icon" viewBox="0 0 26 32"><path fill="none" stroke="#d41443" stroke-width="6.4" stroke-linecap="round" stroke-linejoin="round" style="stroke:var(color1, #d41443)" d="M3.542 3.2 20.368 16 3.542 28.8"/></symbol><symbol id="icon-burger-menu-btn" viewBox="0 0 46 32"><path fill="none" stroke="#d41443" stroke-width="2.286" style="stroke:var(color1, #d41443)" d="M0 2.286h45.714M0 16h45.714M0 29.714h45.714"/></symbol><symbol id="icon-close" viewBox="0 0 32 32"><path fill="none" stroke="#fff" stroke-width="2" style="stroke:var(color2, #fff)" d="m2.52 2 26.96 28M2 29.48 30 2.52"/></symbol><symbol id="icon-contacts-btn1" viewBox="0 0 19 32"><path fill="none" stroke="#fff" stroke-width="6.4" stroke-linecap="round" stroke-linejoin="round" style="stroke:var(--color1, #fff)" d="M3.2 3.2 14.752 16 3.2 28.8"/></symbol><symbol id="icon-contacts-btn2" viewBox="0 0 22 32"><path fill="none" stroke="#d41443" stroke-width="6.4" stroke-linecap="round" stroke-linejoin="round" style="stroke:var(--color2, #d41443)" d="M4.544 3.2 18.246 16 4.544 28.8"/></symbol></defs></svg>