<svg aria-hidden="true" style="position: absolute; width: 0; height: 0; overflow: hidden;" version="1.1" xmlns="http://www.w3.org/2000/svg" xmlns:xlink="http://www.w3.org/1999/xlink">
    <defs>
        <symbol id="icon-right-arrow-products" viewBox="0 0 32 32">
            <path d="M28.66 17.11c0.031-0.043 0.061-0.092 0.087-0.143l0.003-0.007 0.1-0.2 0.060-0.2c0.021-0.049 0.038-0.106 0.049-0.165l0.001-0.005c0.024-0.117 0.038-0.252 0.038-0.39s-0.014-0.273-0.041-0.403l0.002 0.013c-0.012-0.064-0.029-0.121-0.052-0.176l0.002 0.006-0.060-0.2-0.1-0.2c-0.029-0.058-0.059-0.107-0.092-0.154l0.002 0.004c-0.075-0.117-0.157-0.218-0.25-0.31l-10-10c-0.347-0.299-0.803-0.481-1.301-0.481-1.105 0-2 0.895-2 2 0 0.498 0.182 0.953 0.483 1.304l-0.002-0.003 6.58 6.6h-17.17c-1.105 0-2 0.895-2 2s0.895 2 2 2h17.17l-6.58 6.59c-0.429 0.369-0.699 0.913-0.699 1.519 0 1.105 0.895 2 2 2 0.607 0 1.15-0.27 1.517-0.696l0.002-0.003 10-10c0.092-0.089 0.175-0.187 0.246-0.294l0.004-0.006z"></path>
        </symbol>
    </defs>
</svg>